<mxfile host="app.diagrams.net" modified="2022-08-05T12:40:02.638Z" agent="5.0 (Windows NT 10.0; Win64; x64) AppleWebKit/537.36 (KHTML, like Gecko) Chrome/104.0.0.0 Safari/537.36" etag="QOo1cSyd85NcRLXzBoJL" version="20.1.1" type="github">
  <diagram id="aF7s2sprtSHc23R29G0n" name="Page-1">
    <mxGraphModel dx="2059" dy="749" grid="1" gridSize="10" guides="1" tooltips="1" connect="1" arrows="1" fold="1" page="1" pageScale="1" pageWidth="850" pageHeight="1100" math="0" shadow="0">
      <root>
        <mxCell id="0" />
        <mxCell id="1" parent="0" />
        <mxCell id="FdqzSN1PzzM8iArC-SXY-47" value="" style="rounded=0;whiteSpace=wrap;html=1;fontSize=16;fillColor=#F0F0F0;" parent="1" vertex="1">
          <mxGeometry x="-80" y="100" width="660" height="440" as="geometry" />
        </mxCell>
        <mxCell id="FdqzSN1PzzM8iArC-SXY-129" value="" style="group" parent="1" vertex="1" connectable="0">
          <mxGeometry x="-60" y="140" width="604.5" height="362.5" as="geometry" />
        </mxCell>
        <mxCell id="FdqzSN1PzzM8iArC-SXY-1" value="" style="shape=parallelogram;perimeter=parallelogramPerimeter;whiteSpace=wrap;html=1;fixedSize=1;fillColor=#f5f5f5;fontColor=#333333;strokeColor=#666666;" parent="FdqzSN1PzzM8iArC-SXY-129" vertex="1">
          <mxGeometry width="604.5" height="362.5" as="geometry" />
        </mxCell>
        <mxCell id="oH_2iju5pWDTdpRZkpOI-2" value="" style="shape=mxgraph.signs.transportation.car_3;html=1;pointerEvents=1;fillColor=#000000;strokeColor=none;verticalLabelPosition=bottom;verticalAlign=top;align=center;" parent="FdqzSN1PzzM8iArC-SXY-129" vertex="1">
          <mxGeometry x="50" y="50" width="40" height="18" as="geometry" />
        </mxCell>
        <mxCell id="oH_2iju5pWDTdpRZkpOI-8" value="" style="shape=image;html=1;verticalAlign=top;verticalLabelPosition=bottom;labelBackgroundColor=#ffffff;imageAspect=0;aspect=fixed;image=https://cdn2.iconfinder.com/data/icons/boxicons-solid-vol-2/24/bxs-dog-128.png" parent="FdqzSN1PzzM8iArC-SXY-129" vertex="1">
          <mxGeometry x="410" y="50" width="40" height="40" as="geometry" />
        </mxCell>
        <mxCell id="oH_2iju5pWDTdpRZkpOI-13" value="" style="html=1;verticalLabelPosition=bottom;align=center;labelBackgroundColor=#ffffff;verticalAlign=top;strokeWidth=2;strokeColor=#0080F0;shadow=0;dashed=0;shape=mxgraph.ios7.icons.home;" parent="FdqzSN1PzzM8iArC-SXY-129" vertex="1">
          <mxGeometry x="70" y="240" width="24" height="25.5" as="geometry" />
        </mxCell>
        <mxCell id="oH_2iju5pWDTdpRZkpOI-20" value="" style="shape=image;html=1;verticalAlign=top;verticalLabelPosition=bottom;labelBackgroundColor=#ffffff;imageAspect=0;aspect=fixed;image=https://cdn3.iconfinder.com/data/icons/cat-force/128/cat_hungry.png" parent="FdqzSN1PzzM8iArC-SXY-129" vertex="1">
          <mxGeometry x="310" y="202" width="38" height="38" as="geometry" />
        </mxCell>
        <mxCell id="oH_2iju5pWDTdpRZkpOI-21" value="" style="shape=image;html=1;verticalAlign=top;verticalLabelPosition=bottom;labelBackgroundColor=#ffffff;imageAspect=0;aspect=fixed;image=https://cdn3.iconfinder.com/data/icons/cat-force/128/cat_hungry.png" parent="FdqzSN1PzzM8iArC-SXY-129" vertex="1">
          <mxGeometry x="283.25" y="250" width="38" height="38" as="geometry" />
        </mxCell>
        <mxCell id="oH_2iju5pWDTdpRZkpOI-22" value="" style="shape=image;html=1;verticalAlign=top;verticalLabelPosition=bottom;labelBackgroundColor=#ffffff;imageAspect=0;aspect=fixed;image=https://cdn3.iconfinder.com/data/icons/cat-force/128/cat_hungry.png" parent="FdqzSN1PzzM8iArC-SXY-129" vertex="1">
          <mxGeometry x="348" y="260" width="38" height="38" as="geometry" />
        </mxCell>
        <mxCell id="oH_2iju5pWDTdpRZkpOI-23" value="" style="shape=image;html=1;verticalAlign=top;verticalLabelPosition=bottom;labelBackgroundColor=#ffffff;imageAspect=0;aspect=fixed;image=https://cdn3.iconfinder.com/data/icons/cat-force/128/cat_hungry.png" parent="FdqzSN1PzzM8iArC-SXY-129" vertex="1">
          <mxGeometry x="390" y="212" width="38" height="38" as="geometry" />
        </mxCell>
        <mxCell id="oH_2iju5pWDTdpRZkpOI-24" value="" style="shape=image;html=1;verticalAlign=top;verticalLabelPosition=bottom;labelBackgroundColor=#ffffff;imageAspect=0;aspect=fixed;image=https://cdn3.iconfinder.com/data/icons/cat-force/128/cat_hungry.png" parent="FdqzSN1PzzM8iArC-SXY-129" vertex="1">
          <mxGeometry x="390" y="310" width="38" height="38" as="geometry" />
        </mxCell>
        <mxCell id="f0NCSDSkNWeXSEKmXvBJ-5" value="" style="curved=1;endArrow=none;html=1;rounded=0;dashed=1;strokeWidth=3;endFill=0;fillColor=#f8cecc;strokeColor=#b85450;" parent="FdqzSN1PzzM8iArC-SXY-129" edge="1">
          <mxGeometry width="50" height="50" relative="1" as="geometry">
            <mxPoint x="30" y="160" as="sourcePoint" />
            <mxPoint x="250" y="340" as="targetPoint" />
            <Array as="points">
              <mxPoint x="20" y="156.25" />
              <mxPoint x="290" y="180" />
            </Array>
          </mxGeometry>
        </mxCell>
        <mxCell id="f0NCSDSkNWeXSEKmXvBJ-9" value="" style="curved=1;endArrow=none;html=1;rounded=0;dashed=1;strokeWidth=3;entryX=0.91;entryY=0.938;entryDx=0;entryDy=0;entryPerimeter=0;endFill=0;fillColor=#f8cecc;strokeColor=#b85450;" parent="FdqzSN1PzzM8iArC-SXY-129" target="FdqzSN1PzzM8iArC-SXY-1" edge="1">
          <mxGeometry width="50" height="50" relative="1" as="geometry">
            <mxPoint x="200" y="180" as="sourcePoint" />
            <mxPoint x="280" y="130" as="targetPoint" />
            <Array as="points">
              <mxPoint x="220" y="150" />
              <mxPoint x="420" y="170" />
            </Array>
          </mxGeometry>
        </mxCell>
        <mxCell id="f0NCSDSkNWeXSEKmXvBJ-10" value="" style="curved=1;endArrow=none;html=1;rounded=0;dashed=1;strokeWidth=3;endFill=0;fillColor=#f8cecc;strokeColor=#b85450;" parent="FdqzSN1PzzM8iArC-SXY-129" edge="1">
          <mxGeometry width="50" height="50" relative="1" as="geometry">
            <mxPoint x="302" y="160" as="sourcePoint" />
            <mxPoint x="320" y="10" as="targetPoint" />
            <Array as="points">
              <mxPoint x="270" y="90" />
            </Array>
          </mxGeometry>
        </mxCell>
        <mxCell id="f0NCSDSkNWeXSEKmXvBJ-11" value="1" style="ellipse;whiteSpace=wrap;html=1;aspect=fixed;strokeWidth=2;fontFamily=Tahoma;spacingBottom=4;spacingRight=2;strokeColor=#d3d3d3;" parent="FdqzSN1PzzM8iArC-SXY-129" vertex="1">
          <mxGeometry x="104" y="20" width="20" height="20" as="geometry" />
        </mxCell>
        <mxCell id="f0NCSDSkNWeXSEKmXvBJ-12" value="2" style="ellipse;whiteSpace=wrap;html=1;aspect=fixed;strokeWidth=2;fontFamily=Tahoma;spacingBottom=4;spacingRight=2;strokeColor=#d3d3d3;" parent="FdqzSN1PzzM8iArC-SXY-129" vertex="1">
          <mxGeometry x="386" y="30" width="20" height="20" as="geometry" />
        </mxCell>
        <mxCell id="f0NCSDSkNWeXSEKmXvBJ-13" value="3" style="ellipse;whiteSpace=wrap;html=1;aspect=fixed;strokeWidth=2;fontFamily=Tahoma;spacingBottom=4;spacingRight=2;strokeColor=#d3d3d3;" parent="FdqzSN1PzzM8iArC-SXY-129" vertex="1">
          <mxGeometry x="40" y="187" width="20" height="20" as="geometry" />
        </mxCell>
        <mxCell id="f0NCSDSkNWeXSEKmXvBJ-14" value="4" style="ellipse;whiteSpace=wrap;html=1;aspect=fixed;strokeWidth=2;fontFamily=Tahoma;spacingBottom=4;spacingRight=2;strokeColor=#d3d3d3;" parent="FdqzSN1PzzM8iArC-SXY-129" vertex="1">
          <mxGeometry x="481" y="328" width="20" height="20" as="geometry" />
        </mxCell>
        <mxCell id="FdqzSN1PzzM8iArC-SXY-133" value="&lt;b&gt;Training samples&lt;/b&gt;" style="text;html=1;strokeColor=none;fillColor=none;align=center;verticalAlign=middle;whiteSpace=wrap;rounded=0;fontSize=16;" parent="1" vertex="1">
          <mxGeometry x="110" y="510" width="180" height="30" as="geometry" />
        </mxCell>
        <mxCell id="oH_2iju5pWDTdpRZkpOI-3" value="" style="shape=mxgraph.signs.transportation.car_3;html=1;pointerEvents=1;fillColor=#000000;strokeColor=none;verticalLabelPosition=bottom;verticalAlign=top;align=center;" parent="1" vertex="1">
          <mxGeometry y="235" width="40" height="18" as="geometry" />
        </mxCell>
        <mxCell id="oH_2iju5pWDTdpRZkpOI-4" value="" style="shape=mxgraph.signs.transportation.car_3;html=1;pointerEvents=1;fillColor=#000000;strokeColor=none;verticalLabelPosition=bottom;verticalAlign=top;align=center;" parent="1" vertex="1">
          <mxGeometry x="63" y="210" width="40" height="18" as="geometry" />
        </mxCell>
        <mxCell id="oH_2iju5pWDTdpRZkpOI-5" value="" style="shape=mxgraph.signs.transportation.car_3;html=1;pointerEvents=1;fillColor=#000000;strokeColor=none;verticalLabelPosition=bottom;verticalAlign=top;align=center;" parent="1" vertex="1">
          <mxGeometry x="69" y="257" width="40" height="18" as="geometry" />
        </mxCell>
        <mxCell id="oH_2iju5pWDTdpRZkpOI-6" value="" style="shape=mxgraph.signs.transportation.car_3;html=1;pointerEvents=1;fillColor=#000000;strokeColor=none;verticalLabelPosition=bottom;verticalAlign=top;align=center;" parent="1" vertex="1">
          <mxGeometry x="113" y="184" width="40" height="18" as="geometry" />
        </mxCell>
        <mxCell id="oH_2iju5pWDTdpRZkpOI-9" value="" style="shape=image;html=1;verticalAlign=top;verticalLabelPosition=bottom;labelBackgroundColor=#ffffff;imageAspect=0;aspect=fixed;image=https://cdn2.iconfinder.com/data/icons/boxicons-solid-vol-2/24/bxs-dog-128.png" parent="1" vertex="1">
          <mxGeometry x="286" y="235" width="40" height="40" as="geometry" />
        </mxCell>
        <mxCell id="oH_2iju5pWDTdpRZkpOI-10" value="" style="shape=image;html=1;verticalAlign=top;verticalLabelPosition=bottom;labelBackgroundColor=#ffffff;imageAspect=0;aspect=fixed;image=https://cdn2.iconfinder.com/data/icons/boxicons-solid-vol-2/24/bxs-dog-128.png" parent="1" vertex="1">
          <mxGeometry x="359" y="258" width="40" height="40" as="geometry" />
        </mxCell>
        <mxCell id="oH_2iju5pWDTdpRZkpOI-11" value="" style="shape=image;html=1;verticalAlign=top;verticalLabelPosition=bottom;labelBackgroundColor=#ffffff;imageAspect=0;aspect=fixed;image=https://cdn2.iconfinder.com/data/icons/boxicons-solid-vol-2/24/bxs-dog-128.png" parent="1" vertex="1">
          <mxGeometry x="411" y="209" width="40" height="40" as="geometry" />
        </mxCell>
        <mxCell id="oH_2iju5pWDTdpRZkpOI-12" value="" style="shape=image;html=1;verticalAlign=top;verticalLabelPosition=bottom;labelBackgroundColor=#ffffff;imageAspect=0;aspect=fixed;image=https://cdn2.iconfinder.com/data/icons/boxicons-solid-vol-2/24/bxs-dog-128.png" parent="1" vertex="1">
          <mxGeometry x="417" y="287" width="40" height="40" as="geometry" />
        </mxCell>
        <mxCell id="oH_2iju5pWDTdpRZkpOI-14" value="" style="html=1;verticalLabelPosition=bottom;align=center;labelBackgroundColor=#ffffff;verticalAlign=top;strokeWidth=2;strokeColor=#0080F0;shadow=0;dashed=0;shape=mxgraph.ios7.icons.home;" parent="1" vertex="1">
          <mxGeometry x="20" y="428" width="24" height="25.5" as="geometry" />
        </mxCell>
        <mxCell id="oH_2iju5pWDTdpRZkpOI-15" value="" style="html=1;verticalLabelPosition=bottom;align=center;labelBackgroundColor=#ffffff;verticalAlign=top;strokeWidth=2;strokeColor=#0080F0;shadow=0;dashed=0;shape=mxgraph.ios7.icons.home;" parent="1" vertex="1">
          <mxGeometry x="60" y="400" width="24" height="25.5" as="geometry" />
        </mxCell>
        <mxCell id="oH_2iju5pWDTdpRZkpOI-16" value="" style="html=1;verticalLabelPosition=bottom;align=center;labelBackgroundColor=#ffffff;verticalAlign=top;strokeWidth=2;strokeColor=#0080F0;shadow=0;dashed=0;shape=mxgraph.ios7.icons.home;" parent="1" vertex="1">
          <mxGeometry x="63" y="453" width="24" height="25.5" as="geometry" />
        </mxCell>
        <mxCell id="oH_2iju5pWDTdpRZkpOI-17" value="" style="html=1;verticalLabelPosition=bottom;align=center;labelBackgroundColor=#ffffff;verticalAlign=top;strokeWidth=2;strokeColor=#0080F0;shadow=0;dashed=0;shape=mxgraph.ios7.icons.home;" parent="1" vertex="1">
          <mxGeometry x="50" y="341" width="24" height="25.5" as="geometry" />
        </mxCell>
        <mxCell id="oH_2iju5pWDTdpRZkpOI-18" value="" style="html=1;verticalLabelPosition=bottom;align=center;labelBackgroundColor=#ffffff;verticalAlign=top;strokeWidth=2;strokeColor=#0080F0;shadow=0;dashed=0;shape=mxgraph.ios7.icons.home;" parent="1" vertex="1">
          <mxGeometry x="108" y="371" width="24" height="25.5" as="geometry" />
        </mxCell>
        <mxCell id="oH_2iju5pWDTdpRZkpOI-19" value="" style="html=1;verticalLabelPosition=bottom;align=center;labelBackgroundColor=#ffffff;verticalAlign=top;strokeWidth=2;strokeColor=#0080F0;shadow=0;dashed=0;shape=mxgraph.ios7.icons.home;" parent="1" vertex="1">
          <mxGeometry x="107" y="432" width="24" height="25.5" as="geometry" />
        </mxCell>
      </root>
    </mxGraphModel>
  </diagram>
</mxfile>
